# xmcd
#
# Track frame offsets: 
#        150
#        23272
#        36200
#        53210
#        73667
#        91325
#
# Disc length: 1454 seconds
#
# Revision: 0
# Processed by: cddbd v1.5PL3 Copyright (c) Steve Scherf et al.
# Submitted via: ExactAudioCopy v0.95a5
#
DISCID=4205ac06
DTITLE=Taft Croft - Due West
DYEAR=1998
DGENRE=Country
TTITLE0=New Sound in the Country
TTITLE1=Should Ve Known Better
TTITLE2=Things Called Life
TTITLE3=What it Feels Like
TTITLE4=One More Night
TTITLE5=Rooster Crow
EXTD=
EXTT0=
EXTT1=
EXTT2=
EXTT3=
EXTT4=
EXTT5=
PLAYORDER=
